<?xml version="1.0" standalone="no"?>
<!DOCTYPE svg PUBLIC "-//W3C//DTD SVG 20010904//EN"
 "http://www.w3.org/TR/2001/REC-SVG-20010904/DTD/svg10.dtd">
<svg version="1.0" xmlns="http://www.w3.org/2000/svg"
 width="198.000000pt" height="57.000000pt" viewBox="0 0 198.000000 57.000000"
 preserveAspectRatio="xMidYMid meet">

<g transform="translate(0.000000,57.000000) scale(0.100000,-0.100000)"
fill="#000000" stroke="none">
<path d="M239 559 c-90 -13 -180 -83 -217 -168 -21 -48 -20 -165 0 -213 25
-56 92 -123 151 -149 109 -47 237 -20 318 68 56 61 72 104 72 188 0 82 -16
126 -69 185 -65 71 -156 104 -255 89z m153 -47 c42 -19 108 -77 108 -95 0 -5
-20 -7 -45 -5 -32 4 -59 16 -92 42 -62 48 -88 54 -132 30 -44 -23 -59 -54 -67
-133 l-7 -60 -38 42 c-50 55 -52 91 -5 136 70 68 183 86 278 43z m-57 -62 c2
-4 -15 -5 -39 -3 -38 5 -48 2 -70 -20 -14 -14 -26 -22 -26 -17 0 42 56 74 102
58 15 -6 30 -13 33 -18z m113 -57 c52 -7 54 -18 5 -27 -64 -10 -113 -7 -113 7
0 22 24 38 45 32 11 -4 39 -9 63 -12z m77 -64 c0 -34 -38 -51 -101 -44 -35 4
-63 1 -88 -9 -39 -16 -41 -15 -26 15 15 28 63 49 112 50 24 0 52 4 63 9 29 12
40 7 40 -21z m-399 -96 c7 -40 -16 -73 -51 -73 -17 0 -25 9 -33 39 -7 21 -12
51 -12 67 0 27 1 27 15 8 9 -12 13 -13 11 -4 -2 8 -7 29 -11 45 l-6 30 40 -39
c25 -25 43 -53 47 -73z m394 -3 c0 -10 -30 -29 -75 -47 -25 -10 -27 -12 -8
-12 12 -1 34 4 49 9 15 6 28 9 30 7 8 -8 -70 -80 -100 -93 -36 -15 -20 -19 19
-4 38 15 22 -6 -23 -29 -67 -33 -89 -34 -108 -5 -22 32 -34 107 -21 129 21 38
69 55 155 55 46 0 82 -4 82 -10z m-287 -27 c34 -7 30 -27 -6 -31 -33 -4 -67
14 -67 35 0 11 6 14 23 9 12 -4 35 -9 50 -13z"/>
<path d="M1920 391 c0 -6 5 -13 10 -16 6 -3 10 1 10 9 0 9 -4 16 -10 16 -5 0
-10 -4 -10 -9z"/>
<path d="M692 354 c-39 -27 -23 -78 31 -97 10 -4 16 -11 12 -17 -4 -6 -13 -5
-25 2 -15 10 -22 10 -32 0 -16 -16 17 -52 47 -52 40 0 69 53 47 87 -4 6 -20
17 -35 22 -16 6 -25 15 -22 21 4 6 13 5 25 -2 15 -10 22 -10 32 0 9 9 7 16 -7
32 -22 24 -43 25 -73 4z"/>
<path d="M817 364 c-4 -4 -7 -35 -7 -69 0 -51 4 -65 23 -83 13 -12 32 -22 43
-22 25 0 64 27 64 45 0 22 -18 27 -42 11 -16 -11 -25 -13 -35 -4 -20 17 -16
55 7 61 29 7 25 31 -7 48 -16 7 -31 15 -34 16 -3 2 -8 0 -12 -3z"/>
<path d="M1458 359 c-2 -6 -19 -13 -38 -14 -38 -3 -80 -43 -80 -76 0 -11 13
-34 29 -50 26 -25 36 -29 78 -27 l48 3 0 85 c0 71 -3 85 -16 88 -10 2 -19 -2
-21 -9z m-8 -78 c7 -15 6 -24 -6 -36 -9 -9 -21 -14 -27 -12 -18 6 -31 33 -24
51 9 22 44 20 57 -3z"/>
<path d="M1030 343 c-59 -21 -77 -86 -35 -128 33 -34 70 -32 107 5 24 25 29
36 23 58 -11 46 -58 78 -95 65z m48 -69 c2 -11 -3 -26 -11 -33 -29 -24 -70 17
-46 46 17 20 53 12 57 -13z"/>
<path d="M1210 343 c-56 -21 -70 -96 -24 -132 35 -28 69 -26 99 4 40 39 32 96
-16 120 -30 16 -35 17 -59 8z m50 -47 c0 -2 3 -11 6 -19 9 -23 -24 -49 -47
-37 -19 10 -26 40 -12 53 7 8 53 10 53 3z"/>
<path d="M1537 344 c-4 -4 -7 -31 -7 -59 0 -67 26 -94 88 -93 l43 0 -3 77 c-2
60 -6 76 -18 76 -11 0 -16 -14 -18 -52 -5 -84 -48 -79 -54 6 -3 42 -16 60 -31
45z"/>
<path d="M1701 337 c-9 -11 -6 -20 10 -41 l20 -26 -21 -30 c-21 -30 -20 -50 4
-50 8 0 21 10 30 23 l16 22 16 -22 c9 -13 22 -23 30 -23 24 0 25 20 4 50 l-21
30 20 26 c16 21 19 30 10 41 -10 11 -16 10 -36 -8 l-23 -22 -23 22 c-20 18
-26 19 -36 8z"/>
</g>
</svg>
